<svg width="136" height="35" viewBox="0 0 136 35" fill="none" xmlns="http://www.w3.org/2000/svg">
<path d="M44.1521 22.7483H41.8109V21.4729H41.776C41.4964 21.9621 41.112 22.329 40.6053 22.5911C40.1161 22.8706 39.5396 23.0104 38.9106 23.0104C37.9321 23.0104 37.1809 22.7483 36.6392 22.1892C36.0452 21.6126 35.7656 20.7565 35.7656 19.6208V13.3135H38.1942V19.2714C38.1942 19.9179 38.3689 20.3721 38.7359 20.6517C38.9979 20.8613 39.3648 20.9662 39.8541 20.9662C40.3433 20.9662 40.7451 20.8089 41.0596 20.5294C41.4964 20.1625 41.7235 19.6034 41.7235 18.8695V13.3135H44.1521V22.7483V22.7483Z" fill="white"/>
<path d="M48.6243 10.3088H46.1782V22.7314H48.6243V10.3088Z" fill="white"/>
<path d="M53.9368 10.3085H56.7148C57.4312 13.5583 57.9378 15.8121 58.1999 17.1051C58.3921 17.9961 58.5494 18.8523 58.7066 19.656H58.7415L58.8289 19.0969C58.9862 18.2058 59.1434 17.3322 59.3006 16.4586C59.5977 14.9211 59.9995 12.8769 60.5237 10.3085H63.2493C63.9482 13.5757 64.4199 15.8121 64.6645 17.0177C64.8392 17.8564 64.9965 18.73 65.1537 19.6385H65.2236C65.3285 18.9571 65.4857 18.1534 65.6954 17.1924C65.9924 15.8296 66.4991 13.5408 67.2504 10.291H69.9061L66.3593 22.9931H63.8433C63.1794 19.8482 62.7426 17.7515 62.5329 16.7032C62.3058 15.5501 62.0962 14.327 61.9214 13.0516H61.904C61.6943 14.3794 61.4672 15.5675 61.275 16.5809C61.0478 17.7166 60.5936 19.8482 59.9122 22.9931H57.4836L53.9368 10.3085Z" fill="white"/>
<path d="M75.8297 18.2582C75.7074 18.363 75.5326 18.4504 75.288 18.5202C75.0434 18.6076 74.6765 18.6775 74.2048 18.7649C73.6457 18.8697 73.2613 18.992 73.0342 19.1318C72.7022 19.3589 72.5449 19.6909 72.5449 20.1451C72.5449 20.5295 72.6672 20.8265 72.9119 21.0362C73.1215 21.1935 73.3661 21.2808 73.6631 21.2808C74.2397 21.2808 74.7289 21.1236 75.1483 20.7916C75.6025 20.4422 75.8297 20.0054 75.8297 19.4637V18.2582ZM78.2058 20.9663C78.2058 21.4555 78.2583 21.805 78.3456 22.0321C78.4155 22.1893 78.5553 22.3117 78.73 22.399V22.731H76.1267C76.0568 22.5213 76.0044 22.3466 75.9694 22.2243C75.952 22.102 75.9345 21.9098 75.8996 21.6827C75.4802 22.0845 75.1308 22.3815 74.7988 22.5563C74.2397 22.8708 73.6107 23.028 72.9119 23.028C72.1256 23.028 71.4966 22.8183 70.9725 22.3815C70.3959 21.8923 70.0989 21.2109 70.0989 20.3199C70.0989 19.4637 70.361 18.7823 70.8676 18.2582C71.3219 17.7864 71.9684 17.4894 72.7896 17.3671L74.9735 17.0526C75.2356 17.0002 75.4103 16.9303 75.5501 16.8429C75.7423 16.7206 75.8471 16.5459 75.8471 16.3363C75.8471 15.882 75.6549 15.5675 75.2706 15.4102C75.0434 15.3054 74.7115 15.253 74.2572 15.253C73.6981 15.253 73.2962 15.3928 73.0691 15.6723C72.8769 15.882 72.7721 16.1615 72.7546 16.5284H70.4134C70.5357 15.253 71.0074 14.3619 71.8461 13.8552C72.4576 13.4883 73.3661 13.2961 74.5193 13.2961C75.4278 13.2961 76.1966 13.4534 76.843 13.7679C77.7516 14.2396 78.1884 14.9734 78.1884 15.9693V20.9663" fill="white"/>
<path d="M82.7307 10.3088H80.2847V22.7314H82.7307V10.3088Z" fill="white"/>
<path d="M87.2373 10.3088H84.7913V22.7314H87.2373V10.3088Z" fill="white"/>
<path d="M92.1983 20.1975C92.5652 20.7392 93.1243 21.0187 93.8407 21.0187C94.5396 21.0187 95.0637 20.6868 95.4306 20.0228C95.7102 19.5161 95.85 18.9221 95.85 18.2407C95.85 17.4195 95.6927 16.7556 95.3957 16.2664C95.0288 15.6898 94.5046 15.4102 93.7883 15.4102C93.0195 15.4102 92.4604 15.7073 92.1284 16.3188C91.8489 16.808 91.7091 17.4719 91.7091 18.3455C91.7091 19.0968 91.8838 19.7258 92.1983 20.1975ZM91.7091 14.8686C92.0411 14.3969 92.3556 14.0474 92.6701 13.8203C93.1768 13.4709 93.7883 13.2961 94.5046 13.2961C95.5879 13.2961 96.479 13.698 97.1778 14.4668C97.9466 15.3229 98.3485 16.511 98.3485 18.031C98.3485 19.4288 98.034 20.5645 97.4224 21.473C96.7236 22.5038 95.7451 23.0105 94.4697 23.0105C93.7359 23.0105 93.1243 22.8358 92.6526 22.4689C92.3731 22.2592 92.111 21.9622 91.8489 21.5778H91.8314V24.9849H89.4028V13.5582H91.7266V14.8686" fill="white"/>
<path d="M105.146 18.2582C105.024 18.363 104.849 18.4504 104.605 18.5202C104.36 18.6076 103.993 18.6775 103.522 18.7649C102.962 18.8697 102.578 18.992 102.351 19.1318C102.019 19.3589 101.862 19.6909 101.862 20.1451C101.862 20.5295 101.984 20.8265 102.229 21.0362C102.438 21.1935 102.683 21.2808 102.98 21.2808C103.557 21.2808 104.046 21.1236 104.465 20.7916C104.919 20.4422 105.146 20.0054 105.146 19.4637V18.2582V18.2582ZM107.505 20.9663C107.505 21.4555 107.558 21.805 107.645 22.0321C107.715 22.1893 107.855 22.3117 108.012 22.399V22.731H105.409C105.339 22.5213 105.269 22.3466 105.251 22.2243C105.234 22.102 105.216 21.9098 105.181 21.6827C104.762 22.0845 104.395 22.3815 104.081 22.5563C103.522 22.8708 102.893 23.028 102.194 23.028C101.425 23.028 100.778 22.8183 100.272 22.3815C99.6777 21.8923 99.3982 21.2109 99.3982 20.3199C99.3982 19.4637 99.6603 18.7823 100.167 18.2582C100.621 17.7864 101.268 17.4894 102.071 17.3671L104.255 17.0526C104.5 17.0002 104.692 16.9303 104.832 16.8429C105.024 16.7206 105.129 16.5459 105.129 16.3363C105.129 15.882 104.937 15.5675 104.552 15.4102C104.325 15.3054 103.993 15.253 103.539 15.253C102.98 15.253 102.596 15.3928 102.351 15.6723C102.159 15.882 102.054 16.1615 102.036 16.5284H99.6952C99.8175 15.253 100.289 14.3619 101.145 13.8552C101.757 13.4883 102.648 13.2961 103.819 13.2961C104.727 13.2961 105.496 13.4534 106.142 13.7679C107.051 14.2396 107.505 14.9734 107.505 15.9693V20.9663" fill="white"/>
<path d="M112.501 20.1975C112.868 20.7392 113.41 21.0187 114.126 21.0187C114.825 21.0187 115.349 20.6868 115.716 20.0228C115.995 19.5161 116.135 18.9221 116.135 18.2407C116.135 17.4195 115.978 16.7556 115.681 16.2664C115.314 15.6898 114.79 15.4102 114.073 15.4102C113.305 15.4102 112.746 15.7073 112.414 16.3188C112.152 16.808 112.012 17.4719 112.012 18.3455C112.012 19.0968 112.169 19.7258 112.501 20.1975ZM111.994 14.8686C112.326 14.3969 112.641 14.0474 112.955 13.8203C113.462 13.4709 114.073 13.2961 114.79 13.2961C115.873 13.2961 116.764 13.698 117.463 14.4668C118.249 15.3229 118.616 16.511 118.616 18.031C118.616 19.4288 118.302 20.5645 117.69 21.473C116.991 22.5038 116.013 23.0105 114.737 23.0105C114.004 23.0105 113.392 22.8358 112.903 22.4689C112.623 22.2592 112.361 21.9622 112.099 21.5778H112.082V24.9849H109.653V13.5582H111.994V14.8686Z" fill="white"/>
<path d="M125.799 17.2273C125.729 16.5634 125.502 16.0567 125.117 15.7247C124.786 15.4627 124.419 15.3229 123.982 15.3229C123.44 15.3229 123.021 15.4976 122.706 15.8296C122.409 16.1615 122.217 16.6158 122.147 17.2273H125.799V17.2273ZM128.175 20.0752C127.878 21.0886 127.319 21.8574 126.515 22.3641C125.834 22.8009 125.065 23.028 124.174 23.028C122.794 23.028 121.71 22.6611 120.942 21.9098C120.068 21.0537 119.631 19.7433 119.631 17.9611C119.614 16.9303 119.841 16.0043 120.313 15.2006C121.047 13.9426 122.27 13.2961 123.982 13.2961C125.117 13.2961 126.061 13.6106 126.795 14.2571C127.773 15.1132 128.245 16.476 128.245 18.3455V18.8173H122.042V18.8697C122.13 19.4812 122.27 19.9355 122.462 20.2325C122.794 20.7741 123.37 21.0537 124.157 21.0537C124.488 21.0537 124.803 20.9663 125.083 20.7916C125.38 20.5994 125.589 20.3548 125.712 20.0578H128.175" fill="white"/>
<path d="M130.009 13.5582H132.35V15.1482H132.367C132.682 14.5366 132.996 14.0999 133.276 13.8552C133.713 13.4883 134.272 13.2961 134.971 13.2961L135.442 13.3311V15.8121C135.338 15.7772 135.215 15.7597 135.076 15.7422C135.006 15.7422 134.901 15.7422 134.761 15.7422C133.853 15.7422 133.206 15.9868 132.839 16.4586C132.56 16.808 132.437 17.2972 132.437 17.9437V22.7135H129.991V13.5582H130.009Z" fill="white"/>
<path d="M12.7545 11.4092C13.401 12.1255 13.7504 12.9816 13.7679 13.9601H11.3043C11.2344 13.4883 11.0772 13.1039 10.8501 12.8419C10.4133 12.3701 9.71439 12.1255 8.73596 12.1255C8.15939 12.1255 7.67017 12.2303 7.28579 12.44C6.79658 12.7021 6.56944 13.0865 6.56944 13.5932C6.56944 13.995 6.70922 14.292 7.00624 14.5192C7.18096 14.6415 7.46051 14.7638 7.86236 14.8686L7.89731 14.8861L10.9374 15.6548C11.9508 15.882 12.7021 16.1965 13.1913 16.5983C13.8727 17.14 14.2047 17.9437 14.2047 18.9745C14.2047 20.547 13.5233 21.6826 12.1605 22.3641C11.3218 22.7834 10.3783 22.993 9.29506 22.993C7.28579 22.993 5.81815 22.4864 4.90961 21.4905C4.26315 20.7741 3.94865 19.918 3.94865 18.8871H6.44714C6.46461 19.3764 6.60439 19.7957 6.90141 20.1102C7.35568 20.5994 8.0895 20.844 9.10287 20.844C9.83669 20.844 10.4133 20.7392 10.8501 20.547C11.4266 20.2849 11.7062 19.8656 11.7062 19.2715C11.7062 18.8347 11.4965 18.4853 11.0772 18.2407C10.7802 18.066 10.2385 17.9087 9.45231 17.7515L8.10697 17.4195C7.42557 17.2623 6.93635 17.14 6.62186 17.0351C6.11517 16.8604 5.69585 16.6682 5.36388 16.4411C4.96202 16.1615 4.665 15.8296 4.47281 15.4277C4.26315 14.9734 4.14084 14.4143 4.14084 13.7853C4.12337 12.8419 4.4204 12.0207 5.01444 11.3567C5.83562 10.4307 7.14601 9.95899 8.94562 9.95899C10.6055 9.97646 11.8809 10.4657 12.7545 11.4092ZM22.2068 14.2571C23.1678 15.1132 23.657 16.476 23.657 18.3455V18.8173H17.4544V18.8697C17.5418 19.4812 17.6816 19.9355 17.8738 20.2325C18.2057 20.7741 18.7823 21.0537 19.5685 21.0537C19.9005 21.0537 20.215 20.9663 20.4946 20.7916C20.7916 20.5994 21.0012 20.3548 21.1235 20.0578H23.5696C23.2726 21.0711 22.7135 21.8399 21.9098 22.3466C21.2284 22.7834 20.4596 23.0105 19.5685 23.0105C18.1883 23.0105 17.105 22.6436 16.3362 21.8923C15.4626 21.0362 15.0258 19.7258 15.0258 17.9437C15.0258 16.9128 15.253 15.9868 15.7073 15.1831C16.4411 13.9251 17.6816 13.2787 19.3764 13.2787C20.5295 13.3136 21.473 13.6281 22.2068 14.2571ZM32.1309 14.4842C33.0743 15.3753 33.5461 16.5983 33.5461 18.1708C33.5461 19.7258 33.0743 20.9488 32.1309 21.8399C31.2922 22.6261 30.2264 23.028 28.951 23.028C27.6406 23.028 26.5573 22.6261 25.7187 21.8399C24.7752 20.9663 24.286 19.7433 24.286 18.1708C24.286 16.5983 24.7577 15.3753 25.7187 14.4842C26.5748 13.698 27.6406 13.3136 28.951 13.3136C30.2439 13.3136 31.2922 13.698 32.1309 14.4842ZM0 17.1225C0 26.5748 7.67017 34.2275 17.1225 34.2275C26.5748 34.2275 34.245 26.5573 34.245 17.1225C34.245 7.67017 26.5748 0 17.1225 0C7.67017 0 0 7.67017 0 17.1225ZM17.5418 17.2273H21.1934C21.1235 16.5634 20.8964 16.0567 20.512 15.7247C20.1801 15.4626 19.8132 15.3229 19.3764 15.3229C18.8347 15.3229 18.4154 15.4976 18.1009 15.8296C17.7864 16.1615 17.6117 16.6158 17.5418 17.2273ZM27.1863 16.3013C26.9417 16.773 26.8019 17.3846 26.8019 18.1708C26.8019 18.9046 26.9242 19.5161 27.1863 19.9879C27.5532 20.6343 28.1298 20.9488 28.951 20.9488C29.7372 20.9488 30.3138 20.6343 30.6632 19.9879C30.9253 19.5161 31.0476 18.9046 31.0476 18.1708C31.0476 17.402 30.9078 16.773 30.6632 16.3013C30.2963 15.6723 29.7372 15.3578 28.951 15.3578C28.1298 15.3578 27.5532 15.6723 27.1863 16.3013Z" fill="white"/>
</svg>
